<?xml version="1.0" encoding="iso-8859-1"?>
<!-- Generator: Adobe Illustrator 16.0.0, SVG Export Plug-In . SVG Version: 6.00 Build 0)  -->
<!DOCTYPE svg PUBLIC "-//W3C//DTD SVG 1.1//EN" "http://www.w3.org/Graphics/SVG/1.1/DTD/svg11.dtd">
<svg version="1.1" id="Capa_1" xmlns="http://www.w3.org/2000/svg" xmlns:xlink="http://www.w3.org/1999/xlink" x="0px" y="0px"
	 width="26px" height="26px" viewBox="0 0 26 26" style="enable-background:new 0 0 26 26;" xml:space="preserve">
<g>
	<path d="M18.948,9.684L18.948,9.684l-3-9C15.812,0.275,15.431,0,15,0H7C6.568,0,6.188,0.275,6.051,0.684l-3,9
		c-0.056,0.165-0.066,0.342-0.032,0.513l3,15C6.112,25.664,6.522,26,7,26h8c0.477,0,0.887-0.336,0.979-0.805l3-15
		C19.015,10.025,19.004,9.849,18.948,9.684z M15,11h-3v6h-2v-6H7V9h3V5h2v4h3V11z M22.979,10.196l-3,15
		C19.887,25.664,19.477,26,19,26h-3c0.477,0,0.887-0.336,0.979-0.803l3-15c0.034-0.171,0.024-0.348-0.031-0.513l-3-9
		C16.812,0.275,16.431,0,16,0h3c0.431,0,0.812,0.275,0.948,0.684l3,9C23.004,9.849,23.015,10.025,22.979,10.196z"/>
</g>
<g>
</g>
<g>
</g>
<g>
</g>
<g>
</g>
<g>
</g>
<g>
</g>
<g>
</g>
<g>
</g>
<g>
</g>
<g>
</g>
<g>
</g>
<g>
</g>
<g>
</g>
<g>
</g>
<g>
</g>
</svg>
