<?xml version="1.0" encoding="iso-8859-1"?>
<!-- Generator: Adobe Illustrator 16.0.0, SVG Export Plug-In . SVG Version: 6.00 Build 0)  -->
<!DOCTYPE svg PUBLIC "-//W3C//DTD SVG 1.1//EN" "http://www.w3.org/Graphics/SVG/1.1/DTD/svg11.dtd">
<svg version="1.1" id="Capa_1" xmlns="http://www.w3.org/2000/svg" xmlns:xlink="http://www.w3.org/1999/xlink" x="0px" y="0px"
	 width="97.873px" height="97.873px" viewBox="0 0 97.873 97.873" style="enable-background:new 0 0 97.873 97.873;fill:gold"
	 xml:space="preserve">
<g>
	<g>
		<path d="M78.25,3.39H61.887V2.276C61.887,1.019,60.866,0,59.609,0H38.265c-1.257,0-2.276,1.02-2.276,2.276V3.39H19.625
			c-2.825,0-5.123,2.298-5.123,5.123V92.75c0,2.825,2.298,5.123,5.123,5.123h58.624c2.824,0,5.122-2.298,5.122-5.123V8.513
			C83.372,5.688,81.074,3.39,78.25,3.39z M77.68,92.182H20.194v-83.1h15.795v0.681c0,1.257,1.02,2.277,2.276,2.277h21.344
			c1.258,0,2.277-1.02,2.277-2.277V9.082H77.68V92.182z"/>
		<rect x="29.206" y="53.869" width="39.462" height="7.968"/>
		<rect x="29.206" y="70.186" width="39.462" height="7.969"/>
		<polygon points="45.427,45.332 52.448,45.332 52.448,36.414 61.365,36.414 61.365,29.394 52.448,29.394 52.448,20.477 
			45.427,20.477 45.427,29.394 36.51,29.394 36.51,36.414 45.427,36.414 		"/>
	</g>
</g>
<g>
</g>
<g>
</g>
<g>
</g>
<g>
</g>
<g>
</g>
<g>
</g>
<g>
</g>
<g>
</g>
<g>
</g>
<g>
</g>
<g>
</g>
<g>
</g>
<g>
</g>
<g>
</g>
<g>
</g>
</svg>
