<?xml version="1.0" encoding="iso-8859-1"?>
<!-- Generator: Adobe Illustrator 16.0.0, SVG Export Plug-In . SVG Version: 6.00 Build 0)  -->
<!DOCTYPE svg PUBLIC "-//W3C//DTD SVG 1.1//EN" "http://www.w3.org/Graphics/SVG/1.1/DTD/svg11.dtd">
<svg version="1.1" id="Capa_1" xmlns="http://www.w3.org/2000/svg" xmlns:xlink="http://www.w3.org/1999/xlink" x="0px" y="0px"
	 width="237.933px" height="237.933px" viewBox="0 0 237.933 237.933" style="enable-background:new 0 0 237.933 237.933;"
	 xml:space="preserve">
<g>
	<path d="M233.158,23.945c-0.144-0.248-3.922-7.695-24.301-15.826C195.925,2.959,181.005,0,167.922,0
		c-13.595,0-24.628,3.053-32.796,9.072c-1.143,0.844-1.623,1.859-1.315,2.789c0.477,1.449,2.319,1.449,2.926,1.449
		c0.118,0,0.245-0.002,0.378-0.006c1.11-0.037,2.239-0.057,3.348-0.055c31.895,0.039,49.403,5.83,66.054,25.463l-39.881,68.203
		c-16.648-29.959-51.969-17.672-38.25-65.771c2.269-7.957,1.705-28.121-16.678-32.4c-0.096-0.027-1.904-0.365-2.004-0.373
		C91.617,4.998,83.844,25.133,82.545,33.303c-7.699,48.462-41.898,18.091-70.254,56.155c-28.354,38.065,27.8,26.836,32.494,79.108
		c2.029,34.263-6.596,37.842-10.865,54.029c-8.533,32.357,51.989,11.143,78.871-41.395c6.959-14.154,16.193-21.283,25.363-25.576
		l-27.277,46.648c-0.18,0.229-0.287,0.518-0.287,0.829c0,0.744,0.604,1.349,1.348,1.349c0.001,0,0.003,0,0.006,0h13.355
		c0.447,0,0.865-0.224,1.116-0.594c2.558-3.787,16.147-28.49,30.687-54.695c11.988-3.633,19.837-7.73,15.177-27.225
		c9.928-17.687,18.552-32.698,22.246-38.06c7.65-11.102,14.258-20.689,16.608-24.162c6.844-10.105,22.119-33.791,22.271-34.029
		C233.767,25.128,233.594,24.704,233.158,23.945z M103.608,33.829c-0.807,4.344-4.023,7.389-7.182,6.801
		c-3.159-0.586-5.066-4.584-4.26-8.928c0.808-4.344,4.022-7.391,7.182-6.803C102.508,25.487,104.415,29.486,103.608,33.829z
		 M121.633,37.177c-0.807,4.342-4.023,7.389-7.184,6.803c-3.158-0.588-5.064-4.584-4.258-8.93c0.807-4.342,4.021-7.389,7.18-6.803
		C120.532,28.835,122.44,32.831,121.633,37.177z"/>
</g>
<g>
</g>
<g>
</g>
<g>
</g>
<g>
</g>
<g>
</g>
<g>
</g>
<g>
</g>
<g>
</g>
<g>
</g>
<g>
</g>
<g>
</g>
<g>
</g>
<g>
</g>
<g>
</g>
<g>
</g>
</svg>
