<?xml version="1.0" encoding="iso-8859-1"?>
<!-- Generator: Adobe Illustrator 18.1.1, SVG Export Plug-In . SVG Version: 6.00 Build 0)  -->
<svg version="1.1" id="Capa_1" xmlns="http://www.w3.org/2000/svg" xmlns:xlink="http://www.w3.org/1999/xlink" x="0px" y="0px"
	 viewBox="0 0 97.089 97.089" style="enable-background:new 0 0 97.089 97.089;" xml:space="preserve">
<g>
	<path style="fill:#010002;" d="M16.958,83.4c1.05,0,1.897-0.847,1.897-1.886V48.966c0-1.038-0.853-1.886-1.897-1.886h-7.25
		c-1.056,0-1.897,0.853-1.897,1.886v32.549c0,1.044,0.847,1.886,1.897,1.886H16.958z"/>
	<path style="fill:#010002;" d="M94.05,86.569H3.032c-1.038,0-1.891,0.847-1.891,1.886v4.905c0,1.05,0.859,1.891,1.891,1.891H94.05
		c1.05,0,1.886-0.847,1.886-1.891v-4.905C95.936,87.41,95.1,86.569,94.05,86.569z"/>
	<path style="fill:#010002;" d="M40.438,83.4c1.038,0,1.886-0.847,1.886-1.886V48.966c0-1.038-0.853-1.886-1.886-1.886h-7.262
		c-1.038,0-1.88,0.853-1.88,1.886v32.549c0,1.044,0.847,1.886,1.88,1.886H40.438z"/>
	<path style="fill:#010002;" d="M87.391,83.4c1.038,0,1.892-0.847,1.892-1.886V48.966c0-1.038-0.859-1.886-1.892-1.886h-7.268
		c-1.044,0-1.886,0.853-1.886,1.886v32.549c0,1.044,0.847,1.886,1.886,1.886H87.391z"/>
	<path style="fill:#010002;" d="M94.623,36.429L55.826,4.322c-4.01-3.312-10.561-3.312-14.565,0L2.477,36.429
		c-4.022,3.33-3.037,6.038,2.166,6.038h87.814C97.648,42.468,98.627,39.759,94.623,36.429z M48.541,34.651
		c-4.069,0-7.363-3.306-7.363-7.369s3.3-7.357,7.363-7.357c4.081,0,7.363,3.294,7.363,7.357S52.622,34.651,48.541,34.651z"/>
	<path style="fill:#010002;" d="M63.906,83.4c1.05,0,1.892-0.847,1.892-1.886V48.966c0-1.038-0.847-1.886-1.892-1.886H56.65
		c-1.05,0-1.891,0.853-1.891,1.886v32.549c0,1.044,0.847,1.886,1.891,1.886H63.906z"/>
</g>
<g>
</g>
<g>
</g>
<g>
</g>
<g>
</g>
<g>
</g>
<g>
</g>
<g>
</g>
<g>
</g>
<g>
</g>
<g>
</g>
<g>
</g>
<g>
</g>
<g>
</g>
<g>
</g>
<g>
</g>
</svg>
