<?xml version="1.0" encoding="iso-8859-1"?>
<!-- Generator: Adobe Illustrator 16.0.0, SVG Export Plug-In . SVG Version: 6.00 Build 0)  -->
<!DOCTYPE svg PUBLIC "-//W3C//DTD SVG 1.1//EN" "http://www.w3.org/Graphics/SVG/1.1/DTD/svg11.dtd">
<svg version="1.1" id="Capa_1" xmlns="http://www.w3.org/2000/svg" xmlns:xlink="http://www.w3.org/1999/xlink" x="0px" y="0px"
	 width="79.537px" height="79.537px" viewBox="0 0 79.537 79.537" style="enable-background:new 0 0 79.537 79.537;"
	 xml:space="preserve">
<g>
	<path style="fill:#FFD700;" d="M64.973,38.57c-1.361,2.509-2.351,4.062-2.956,4.673c-2.419,3.107-5.453,5.64-9.072,7.617
		c-3.189,1.74-6.556,2.739-10.121,2.962c-3.547,0.223-7.003-0.171-10.333-1.191c-3.327-1.035-6.379-2.63-9.137-4.83
		c-2.762-2.207-4.979-4.94-6.638-8.203c-1.745-3.345-2.768-6.807-3.076-10.414c-0.298-3.609,0.057-7.062,1.087-10.346
		c1.022-3.301,2.672-6.341,4.935-9.108c2.271-2.768,5.064-5.064,8.399-6.887c4.699-2.434,10.255-3.298,16.694-2.62l-8.518,2.397
		c-2.946,1.579-5.406,3.594-7.369,6.022c-1.973,2.428-3.389,5.09-4.264,7.958c-0.87,2.889-1.176,5.87-0.912,8.94
		c0.259,3.061,1.149,6.051,2.667,8.93c1.518,2.89,3.446,5.318,5.79,7.296c2.34,1.968,4.942,3.387,7.786,4.267
		c2.837,0.86,5.771,1.187,8.8,0.964c3.019-0.223,5.976-1.098,8.865-2.621L64.973,38.57z M58.61,79.537H17.05V59.171h41.56V79.537z
		 M59.07,21.153l2.725,7.641l-6.483-4.562l-6.462,4.562l2.609-7.635l-6.581-4.663h8.067l2.366-7.18l2.729,7.18h7.959L59.07,21.153z"
		/>
</g>
<g>
</g>
<g>
</g>
<g>
</g>
<g>
</g>
<g>
</g>
<g>
</g>
<g>
</g>
<g>
</g>
<g>
</g>
<g>
</g>
<g>
</g>
<g>
</g>
<g>
</g>
<g>
</g>
<g>
</g>
</svg>
