<?xml version="1.0" encoding="utf-8"?>
<!-- Generator: Adobe Illustrator 16.0.0, SVG Export Plug-In . SVG Version: 6.00 Build 0)  -->
<!DOCTYPE svg PUBLIC "-//W3C//DTD SVG 1.1//EN" "http://www.w3.org/Graphics/SVG/1.1/DTD/svg11.dtd">
<svg version="1.1" id="Layer_1" xmlns="http://www.w3.org/2000/svg" xmlns:xlink="http://www.w3.org/1999/xlink" x="0px" y="0px"
	 width="100px" height="100px" viewBox="0 0 100 100" enable-background="new 0 0 100 100" xml:space="preserve">
<g>
	<path d="M68.042,47.541c0-0.268-0.218-0.486-0.485-0.486c-0.474,0-0.859,0.385-0.859,0.858c0,0.729,0.593,1.322,1.322,1.322
		c0.675,0,1.268-0.352,1.606-0.882c-0.164,0.118-0.366,0.188-0.584,0.188C68.489,48.541,68.042,48.093,68.042,47.541z"/>
	<path d="M50.901,14.1c-20.953,0-38,17.047-38,38s17.047,38,38,38s38-17.047,38-38S71.854,14.1,50.901,14.1z M34.901,76.059
		c0,0.552-0.447,1-1,1s-1-0.448-1-1V57.726c0-0.552,0.447-1,1-1s1,0.448,1,1V76.059z M37.901,76.059c0,0.552-0.447,1-1,1
		s-1-0.448-1-1V57.726c0-0.552,0.447-1,1-1s1,0.448,1,1V76.059z M40.901,76.059c0,0.552-0.447,1-1,1s-1-0.448-1-1V57.726
		c0-0.552,0.447-1,1-1s1,0.448,1,1V76.059z M43.901,76.059c0,0.552-0.447,1-1,1s-1-0.448-1-1V44.392c0-0.552,0.447-1,1-1
		s1,0.448,1,1V76.059z M46.901,76.059c0,0.552-0.447,1-1,1s-1-0.448-1-1V44.392c0-0.552,0.447-1,1-1s1,0.448,1,1V76.059z
		 M49.901,76.059c0,0.552-0.447,1-1,1s-1-0.448-1-1V44.392c0-0.552,0.447-1,1-1s1,0.448,1,1V76.059z M53.901,76.059
		c0,0.552-0.447,1-1,1s-1-0.448-1-1V44.392c0-0.552,0.447-1,1-1s1,0.448,1,1V76.059z M56.901,76.059c0,0.552-0.447,1-1,1
		s-1-0.448-1-1V44.392c0-0.552,0.447-1,1-1s1,0.448,1,1V76.059z M59.901,76.059c0,0.552-0.447,1-1,1s-1-0.448-1-1V44.392
		c0-0.552,0.447-1,1-1s1,0.448,1,1V76.059z M62.901,76.059c0,0.552-0.447,1-1,1s-1-0.448-1-1V57.726c0-0.552,0.447-1,1-1
		s1,0.448,1,1V76.059z M65.901,76.059c0,0.552-0.447,1-1,1s-1-0.448-1-1V57.726c0-0.552,0.447-1,1-1s1,0.448,1,1V76.059z
		 M68.901,76.059c0,0.552-0.447,1-1,1s-1-0.448-1-1V57.726c0-0.552,0.447-1,1-1s1,0.448,1,1V76.059z M68.428,54.909
		c-1.781,0-3.456-0.694-4.716-1.954s-1.953-2.935-1.952-4.716c0-3.052,2.483-5.535,5.535-5.535c2.553,0,4.629,2.076,4.629,4.628
		c0,2.152-1.751,3.903-3.904,3.903c-1.832,0-3.322-1.49-3.322-3.322c0-1.576,1.282-2.858,2.859-2.858
		c0.927,0,1.737,0.511,2.165,1.266c-0.397-0.949-1.336-1.617-2.427-1.617c-1.949,0-3.535,1.586-3.535,3.536
		c0,1.248,0.485,2.42,1.367,3.302c0.881,0.882,2.054,1.368,3.301,1.368c3.356,0,6.088-2.73,6.088-6.087
		c0-4.333-3.525-7.858-7.859-7.858H33.04c-4.333,0-7.858,3.525-7.858,7.858c0,3.356,2.73,6.087,6.087,6.087
		c2.574,0,4.669-2.095,4.669-4.669c0-1.95-1.586-3.536-3.535-3.536c-1.089,0-2.025,0.666-2.424,1.611
		c0.428-0.752,1.237-1.26,2.162-1.26c1.576,0,2.858,1.282,2.858,2.858c0,1.832-1.49,3.322-3.322,3.322
		c-2.152,0-3.903-1.751-3.903-3.903c0-2.552,2.076-4.628,4.629-4.628c3.052,0,5.535,2.483,5.535,5.536
		c0,3.678-2.991,6.669-6.669,6.669c-4.459,0-8.087-3.628-8.087-8.087c0-5.436,4.423-9.858,9.858-9.858h33.616
		c5.437,0,9.859,4.422,9.859,9.858C76.516,51.281,72.888,54.909,68.428,54.909z M75.516,34.225H24.182c-0.553,0-1-0.448-1-1
		s0.447-1,1-1h51.334c0.553,0,1,0.448,1,1S76.068,34.225,75.516,34.225z"/>
	<path d="M31.677,49.235c0.729,0,1.322-0.593,1.322-1.322c0-0.473-0.385-0.858-0.858-0.858c-0.269,0-0.486,0.218-0.486,0.486
		c0,0.552-0.447,1-1,1c-0.218,0-0.418-0.069-0.582-0.187C30.41,48.883,31.003,49.235,31.677,49.235z"/>
</g>
</svg>
