<?xml version="1.0" encoding="iso-8859-1"?>
<!-- Generator: Adobe Illustrator 18.1.1, SVG Export Plug-In . SVG Version: 6.00 Build 0)  -->
<svg version="1.1" id="Capa_1" xmlns="http://www.w3.org/2000/svg" xmlns:xlink="http://www.w3.org/1999/xlink" x="0px" y="0px"
	 viewBox="0 0 343.023 343.023" style="enable-background:new 0 0 343.023 343.023;fill:gold" xml:space="preserve">
<g>
	<g id="Layer_5_33_">
		<g>
			<path d="M323.022,96.648c0,0-47.022,0-60.942,0c-16.735,0-15.705-21.465-15.705-21.465V20c0-11.028-8.972-20-20-20H116.648
				c-11.028,0-20,8.972-20,20v55.183c0,0,2.697,21.465-18.579,21.465c-13.169,0-58.068,0-58.068,0c-11.028,0-20,8.972-20,20v109.727
				c0,11.028,8.972,20,20,20c0,0,50.008,0,66.677,0c11,0,9.97,8.812,9.97,8.812v67.836c0,11.028,8.972,20,20,20h109.727
				c11.028,0,20-8.972,20-20v-66.834c0,0-1.696-9.814,10.637-9.814c16.503,0,66.011,0,66.011,0c11.028,0,20-8.972,20-20V116.648
				C343.022,105.619,334.051,96.648,323.022,96.648z"/>
		</g>
	</g>
</g>
<g>
</g>
<g>
</g>
<g>
</g>
<g>
</g>
<g>
</g>
<g>
</g>
<g>
</g>
<g>
</g>
<g>
</g>
<g>
</g>
<g>
</g>
<g>
</g>
<g>
</g>
<g>
</g>
<g>
</g>
</svg>
