<?xml version="1.0" encoding="iso-8859-1"?>
<!-- Generator: Adobe Illustrator 16.0.0, SVG Export Plug-In . SVG Version: 6.00 Build 0)  -->
<!DOCTYPE svg PUBLIC "-//W3C//DTD SVG 1.1//EN" "http://www.w3.org/Graphics/SVG/1.1/DTD/svg11.dtd">
<svg version="1.1" id="Capa_1" xmlns="http://www.w3.org/2000/svg" xmlns:xlink="http://www.w3.org/1999/xlink" x="0px" y="0px"
	 width="456px" height="456px" viewBox="0 0 456 456" style="enable-background:new 0 0 456 456;" xml:space="preserve">
<g>
	<path d="M378.694,430.24H443.5c6.904,0,12.5-5.597,12.5-12.5V252.121c0-6.904-5.596-12.5-12.5-12.5h-30.508v-33.71
		c0-6.903-5.598-12.5-12.5-12.5h-21.129v-22.507c0-6.903-5.597-12.5-12.5-12.5c-6.904,0-12.5,5.597-12.5,12.5v22.507h-35.687
		c0.04-0.404,0.062-0.812,0.062-1.226v-47.584c0-43.051-35.923-82.592-78.239-89.265V38.217c0-6.903-5.596-12.5-12.5-12.5
		c-6.904,0-12.5,5.597-12.5,12.5v17.118c-42.315,6.673-78.239,46.214-78.239,89.265v47.583c0,0.414,0.022,0.822,0.062,1.226h-35.686
		v-22.507c0-6.903-5.596-12.5-12.5-12.5c-6.904,0-12.5,5.597-12.5,12.5v22.507H55.508c-6.903,0-12.5,5.597-12.5,12.5v33.71H12.5
		c-6.904,0-12.5,5.596-12.5,12.5v165.619c0,6.903,5.596,12.5,12.5,12.5h64.806c6.904,0,12.5-5.597,12.5-12.5V355.67h20.688v62.068
		c0,6.899,5.591,12.496,12.492,12.5l67.26,0.044c0.003,0,0.005,0,0.008,0c3.313,0,6.492-1.316,8.836-3.658
		c2.346-2.345,3.664-5.525,3.664-8.842v-71.638c0-13.922,11.326-25.248,25.247-25.248s25.247,11.326,25.247,25.24
		c-0.016,27.269-0.049,68.528-0.087,71.234c-0.097,3.292,1.11,6.496,3.368,8.909c2.363,2.524,5.668,3.958,9.125,3.958h67.353
		c6.904,0,12.5-5.597,12.5-12.5V355.67h20.688v62.068C366.194,424.643,371.791,430.24,378.694,430.24z M162.261,192.185v-47.584
		c0-33.544,31.948-65.258,65.739-65.258s65.739,31.714,65.739,65.258v47.583c0,0.414,0.021,0.822,0.062,1.226H162.199
		C162.239,193.006,162.261,192.599,162.261,192.185z M68.008,218.411h319.983v21.21H68.008V218.411z M333.006,330.671
		c-6.904,0-12.5,5.597-12.5,12.5v62.068h-42.312c0.019-10.008,0.037-27.696,0.054-59.095c0-27.707-22.541-50.246-50.247-50.246
		s-50.247,22.541-50.247,50.246v59.13l-42.26-0.027v-62.076c0-6.903-5.596-12.5-12.5-12.5H77.305c-6.904,0-12.5,5.597-12.5,12.5
		v62.068H25V264.621h406V405.24h-39.806v-62.068c0-6.903-5.597-12.5-12.5-12.5H333.006L333.006,330.671z"/>
</g>
<g>
</g>
<g>
</g>
<g>
</g>
<g>
</g>
<g>
</g>
<g>
</g>
<g>
</g>
<g>
</g>
<g>
</g>
<g>
</g>
<g>
</g>
<g>
</g>
<g>
</g>
<g>
</g>
<g>
</g>
</svg>
